<svg xmlns="http://www.w3.org/2000/svg" version="1.1" xmlns:xlink="http://www.w3.org/1999/xlink" xmlns:svgjs="http://svgjs.dev/svgjs" width="1000" height="623" viewBox="0 0 1000 623"><g transform="matrix(1,0,0,1,-0.6060606060606233,0.2522267206477409)"><svg viewBox="0 0 396 247" data-background-color="#ffffff" preserveAspectRatio="xMidYMid meet" height="623" width="1000" xmlns="http://www.w3.org/2000/svg" xmlns:xlink="http://www.w3.org/1999/xlink"><g id="tight-bounds" transform="matrix(1,0,0,1,0.2400000000000091,-0.09999999999999432)"><svg viewBox="0 0 395.52 247.2" height="247.2" width="395.52"><g><svg></svg></g><g><svg viewBox="0 0 395.52 247.2" height="247.2" width="395.52"><g transform="matrix(1,0,0,1,78.77113663366335,47.215199999999996)"><svg viewBox="0 0 237.9777267326733 152.7696" height="152.7696" width="237.9777267326733"><g><svg viewBox="0 0 237.9777267326733 152.7696" height="152.7696" width="237.9777267326733"><g><svg viewBox="0 0 237.9777267326733 152.7696" height="152.7696" width="237.9777267326733"><g><svg viewBox="0 0 237.9777267326733 152.7696" height="152.7696" width="237.9777267326733"><g id="textblocktransform"><svg viewBox="0 0 237.9777267326733 152.7696" height="152.7696" width="237.9777267326733" id="textblock"><g><svg viewBox="0 0 237.9777267326733 152.7696" height="152.7696" width="237.9777267326733"><g transform="matrix(1,0,0,1,0,0)"><svg width="237.9777267326733" viewBox="1.2000000476837158 -37.95000076293945 70.80000305175781 45.45000076293945" height="152.7696" data-palette-color="#fce44d"><path d="M25.2-34.25L25.2-34.25 23.25-29.8Q21.2-30.55 19.18-31 17.15-31.45 15.3-31.45L15.3-31.45Q12.15-31.45 10.28-30.15 8.4-28.85 8.4-26.85L8.4-26.85Q8.4-25.15 9.75-24.13 11.1-23.1 13.1-22.28 15.1-21.45 17.45-20.63 19.8-19.8 21.8-18.5 23.8-17.2 25.15-15.23 26.5-13.25 26.5-10.15L26.5-10.15Q26.5-7.75 25.63-5.83 24.75-3.9 23.03-2.5 21.3-1.1 18.73-0.35 16.15 0.4 12.7 0.4L12.7 0.4Q10.5 0.4 8.72 0.1 6.95-0.2 5.53-0.68 4.1-1.15 3.03-1.7 1.95-2.25 1.2-2.7L1.2-2.7 3.6-7.45Q5.6-6.3 8.05-5.6 10.5-4.9 12.5-4.9L12.5-4.9Q13.5-4.9 14.98-5.15 16.45-5.4 17.8-6.03 19.15-6.65 20.13-7.7 21.1-8.75 21.1-10.35L21.1-10.35Q21.1-11.8 20.33-12.83 19.55-13.85 18.28-14.63 17-15.4 15.38-16.03 13.75-16.65 12.05-17.32 10.35-18 8.72-18.75 7.1-19.5 5.83-20.58 4.55-21.65 3.78-23.08 3-24.5 3-26.5L3-26.5Q3-28.35 3.75-30.15 4.5-31.95 6-33.35 7.5-34.75 9.73-35.6 11.95-36.45 14.9-36.45L14.9-36.45Q16.7-36.45 18.43-36.15 20.15-35.85 21.55-35.48 22.95-35.1 23.93-34.75 24.9-34.4 25.2-34.25ZM59.9 0L54.5 0Q54.25-0.55 53.8-1.6 53.35-2.65 52.77-4.03 52.2-5.4 51.52-7.03 50.85-8.65 50.15-10.4L50.15-10.4 37.35-10.4 33.05 0 27.65 0 43.8-37.95Q44.1-37.25 44.87-35.4 45.65-33.55 46.72-30.98 47.8-28.4 49.12-25.28 50.45-22.15 51.82-18.95 53.2-15.75 54.52-12.65 55.85-9.55 56.95-6.95 58.05-4.35 58.82-2.53 59.6-0.7 59.9 0L59.9 0ZM43.25-24.7L39.25-15 48.3-15Q47.6-16.65 46.97-18.18 46.35-19.7 45.82-20.98 45.3-22.25 44.9-23.2 44.5-24.15 44.3-24.7L44.3-24.7Q44.25-24.8 44.07-25.4 43.9-26 43.8-26.5L43.8-26.5Q43.7-26 43.5-25.4 43.3-24.8 43.25-24.7L43.25-24.7ZM58.55 7.5L58.55 7.5 58.55 2.35Q62.05 2.15 64.27-0.05 66.5-2.25 66.5-6.9L66.5-6.9 66.5-36.25 72-36.25 72-6.75Q72-3.4 71-0.8 70 1.8 68.2 3.63 66.4 5.45 63.92 6.43 61.45 7.4 58.55 7.5Z" opacity="1" transform="matrix(1,0,0,1,0,0)" fill="#fce44d" class="undefined-text-0" data-fill-palette-color="primary" id="text-0"></path></svg></g></svg></g></svg></g></svg></g></svg></g></svg></g></svg></g><path d="M134.448 41.215L134.448 0 381.648 0 381.648 247.2 134.448 247.2 134.448 205.985 148.224 205.985 148.224 233.423 367.871 233.423 367.871 13.777 148.224 13.777 148.224 41.215Z" fill="#fce44d" stroke="transparent" data-fill-palette-color="primary"></path></svg></g><defs></defs></svg><rect width="395.52" height="247.2" fill="none" stroke="none" visibility="hidden"></rect></g></svg></g></svg>